# xmcd
#
# Track frame offsets:
#	150
#	15204
#	33739
#	49164
#	68366
#	79386
#	91881
#	105579
#	118754
#	132806
#	147781
#	166079
#
# Disc length: 2470 seconds
#
# Revision: 0
# Processed by: cddbd v1.4PL0 Copyright (c) Steve Scherf et al.
# Submitted via: dBpowerAMP V4.0
#
DISCID=9009a40c
DTITLE=Jeffrey Halford - Hunkpapa
DYEAR=1900
DGENRE=Blues
TTITLE0=Stone's throw
TTITLE1=Radio flyer
TTITLE2=Oh, Susanna
TTITLE3=Black gold
TTITLE4=St. Vincent de Paul
TTITLE5=Lost and found
TTITLE6=Memphis
TTITLE7=44
TTITLE8=Small craft advisory
TTITLE9=Crazy horse
TTITLE10=Satchel's fastball
TTITLE11=Straight razor
EXTD=
EXTT0=
EXTT1=
EXTT2=
EXTT3=
EXTT4=
EXTT5=
EXTT6=
EXTT7=
EXTT8=
EXTT9=
EXTT10=
EXTT11=
PLAYORDER=
